<?xml version="1.0" encoding="utf-8"?>
<!-- Generator: Adobe Illustrator 20.1.0, SVG Export Plug-In . SVG Version: 6.00 Build 0)  -->
<svg version="1.1" xmlns="http://www.w3.org/2000/svg" xmlns:xlink="http://www.w3.org/1999/xlink" x="0px" y="0px"
	 viewBox="100 100 170 200" style="enable-background:new 0 0 300 300;" xml:space="preserve">
<style type="text/css">
	.st0{fill:#F1B21D;}
	.st1{fill:#FFCC14;}
	.st2{opacity:0.64;fill:#603913;}
	.st3{opacity:0.53;}
	.st4{fill:none;stroke:#FFFFFF;stroke-width:0.5;stroke-miterlimit:10;}
	.st5{fill:#00AEEF;}
	.st6{fill:#FBB040;}
	.st7{fill:#D7DF23;}
	.st8{fill:#EC008C;}
	.st9{fill:#EE2A7B;}
	.st10{fill:none;stroke:#97D8E7;stroke-miterlimit:10;}
</style>
<g id="Layer_2">
	<g>
		<path class="st0" d="M280.9,170.1c-13.8,13.5-33.2,16.1-33.2,16.1s2.9-19.4,16.7-32.9c13.8-13.5,33.2-16.1,33.2-16.1
			S294.7,156.6,280.9,170.1z"/>
		<path class="st0" d="M231.4,218.8c-13.8,13.5-33.2,16.1-33.2,16.1s2.9-19.4,16.7-32.9s33.2-16.1,33.2-16.1
			S245.2,205.2,231.4,218.8z"/>
	</g>
	<g>
		<path class="st0" d="M263.8,219c-13.5-13.8-16.1-33.2-16.1-33.2s19.4,2.9,32.9,16.7c13.5,13.8,16.1,33.2,16.1,33.2
			S277.4,232.8,263.8,219z"/>
		<path class="st0" d="M215.2,169.6c-13.5-13.8-16.1-33.2-16.1-33.2s19.4,2.9,32.9,16.7c13.5,13.8,16.1,33.2,16.1,33.2
			S228.7,183.3,215.2,169.6z"/>
	</g>
	<g>
		<path class="st0" d="M284.4,188.8c-18.7,4.8-36.8-2.6-36.8-2.6s12.2-15.3,30.9-20.1c18.7-4.8,36.8,2.6,36.8,2.6
			S303.1,183.9,284.4,188.8z"/>
		<path class="st0" d="M217.3,206.1c-18.7,4.8-36.8-2.6-36.8-2.6s12.2-15.3,30.9-20.1s36.8,2.6,36.8,2.6S236,201.3,217.3,206.1z"/>
	</g>
	<g>
		<path class="st0" d="M278.2,206.7c-18.6-5.2-30.6-20.7-30.6-20.7s18.2-7.1,36.8-2c18.6,5.2,30.6,20.7,30.6,20.7
			S296.8,211.8,278.2,206.7z"/>
		<path class="st0" d="M211.3,188.1c-18.6-5.2-30.6-20.7-30.6-20.7s18.2-7.1,36.8-2s30.6,20.7,30.6,20.7S229.9,193.3,211.3,188.1z"
			/>
	</g>
	<g>
		<path class="st0" d="M245.2,222.6c-4.8-18.7,2.6-36.8,2.6-36.8s15.3,12.2,20.1,30.9c4.8,18.7-2.6,36.8-2.6,36.8
			S250,241.3,245.2,222.6z"/>
		<path class="st0" d="M227.8,155.4c-4.8-18.7,2.6-36.8,2.6-36.8s15.3,12.2,20.1,30.9c4.8,18.7-2.6,36.8-2.6,36.8
			S232.7,174.1,227.8,155.4z"/>
	</g>
	<g>
		<path class="st0" d="M268.5,155.8c-5.2,18.6-20.7,30.6-20.7,30.6s-7.1-18.2-2-36.8s20.7-30.6,20.7-30.6S273.7,137.2,268.5,155.8z"
			/>
		<path class="st0" d="M250,222.6c-5.2,18.6-20.7,30.6-20.7,30.6s-7.1-18.2-2-36.8s20.7-30.6,20.7-30.6S255.1,204,250,222.6z"/>
	</g>
	<g>
		<path class="st1" d="M275.6,162.1c-9.8,16.6-27.9,24.2-27.9,24.2s-2.2-19.5,7.6-36.1s27.9-24.2,27.9-24.2S285.4,145.5,275.6,162.1
			z"/>
		<path class="st1" d="M240.4,221.9c-9.8,16.6-27.9,24.2-27.9,24.2s-2.2-19.5,7.6-36.1c9.8-16.6,27.9-24.2,27.9-24.2
			S250.2,205.3,240.4,221.9z"/>
	</g>
	<g>
		<path class="st1" d="M283.9,179.2c-16.8,9.5-36.2,7-36.2,7s7.8-17.9,24.6-27.4c16.8-9.5,36.2-7,36.2-7S300.7,169.7,283.9,179.2z"
			/>
		<path class="st1" d="M223.5,213.4c-16.8,9.5-36.2,7-36.2,7s7.8-17.9,24.6-27.4c16.8-9.5,36.2-7,36.2-7S240.3,203.9,223.5,213.4z"
			/>
	</g>
	<g>
		<path class="st1" d="M282.5,198.1c-19.3-0.2-34.9-12.1-34.9-12.1s15.8-11.6,35.1-11.4s34.9,12.1,34.9,12.1
			S301.8,198.3,282.5,198.1z"/>
		<path class="st1" d="M213.1,197.5c-19.3-0.2-34.9-12.1-34.9-12.1s15.8-11.6,35.1-11.4s34.9,12.1,34.9,12.1
			S232.4,197.7,213.1,197.5z"/>
	</g>
	<g>
		<path class="st1" d="M271.8,213.8c-16.6-9.8-24.2-27.9-24.2-27.9s19.5-2.2,36.1,7.6s24.2,27.9,24.2,27.9S288.5,223.6,271.8,213.8z
			"/>
		<path class="st1" d="M212,178.6c-16.6-9.8-24.2-27.9-24.2-27.9s19.5-2.2,36.1,7.6c16.6,9.8,24.2,27.9,24.2,27.9
			S228.7,188.4,212,178.6z"/>
	</g>
	<g>
		<path class="st1" d="M254.8,222c-9.5-16.8-7-36.2-7-36.2s17.9,7.8,27.4,24.6s7,36.2,7,36.2S264.3,238.9,254.8,222z"/>
		<path class="st1" d="M220.6,161.7c-9.5-16.8-7-36.2-7-36.2s17.9,7.8,27.4,24.6c9.5,16.8,7,36.2,7,36.2S230.1,178.5,220.6,161.7z"
			/>
	</g>
	<g>
		<path class="st1" d="M260,151.5c-0.2,19.3-12.1,34.9-12.1,34.9s-11.6-15.8-11.4-35.1s12.1-34.9,12.1-34.9S260.1,132.2,260,151.5z"
			/>
		<path class="st1" d="M259.3,220.9c-0.2,19.3-12.1,34.9-12.1,34.9s-11.6-15.8-11.4-35.1s12.1-34.9,12.1-34.9
			S259.5,201.5,259.3,220.9z"/>
	</g>
	<circle class="st2" cx="247.9" cy="186.1" r="41.4"/>
	<g class="st3">
		<g>
			<path class="st4" d="M258.3,165.6c0,11.3-10.4,20.4-10.4,20.4s-10.4-9.1-10.4-20.4c0-11.3,10.4-20.4,10.4-20.4
				S258.3,154.3,258.3,165.6z"/>
			<path class="st4" d="M258.3,206.5c0,11.3-10.4,20.4-10.4,20.4s-10.4-9.1-10.4-20.4s10.4-20.4,10.4-20.4S258.3,195.2,258.3,206.5z
				"/>
		</g>
		<g>
			<path class="st4" d="M260.8,167.1c-1.4,11.2-12.9,19-12.9,19s-9.2-10.4-7.8-21.6c1.4-11.2,12.9-19,12.9-19
				S262.2,155.9,260.8,167.1z"/>
			<path class="st4" d="M255.7,207.6c-1.4,11.2-12.9,19-12.9,19s-9.2-10.4-7.8-21.6c1.4-11.2,12.9-19,12.9-19
				S257.1,196.4,255.7,207.6z"/>
		</g>
		<g>
			<path class="st4" d="M263.1,168.9c-2.8,10.9-15.2,17.2-15.2,17.2s-7.8-11.5-5-22.4c2.8-10.9,15.2-17.2,15.2-17.2
				S265.9,157.9,263.1,168.9z"/>
			<path class="st4" d="M252.9,208.5c-2.8,10.9-15.2,17.2-15.2,17.2s-7.8-11.5-5-22.4c2.8-10.9,15.2-17.2,15.2-17.2
				S255.7,197.5,252.9,208.5z"/>
		</g>
		<g>
			<path class="st4" d="M265.1,170.9c-4.2,10.5-17.2,15.2-17.2,15.2s-6.3-12.3-2.1-22.8c4.2-10.5,17.2-15.2,17.2-15.2
				S269.3,160.4,265.1,170.9z"/>
			<path class="st4" d="M250,208.9c-4.2,10.5-17.2,15.2-17.2,15.2s-6.3-12.3-2.1-22.8c4.2-10.5,17.2-15.2,17.2-15.2
				S254.2,198.4,250,208.9z"/>
		</g>
		<g>
			<path class="st4" d="M266.9,173.2c-5.4,9.9-19,12.9-19,12.9s-4.7-13,0.7-22.9s19-12.9,19-12.9S272.3,163.3,266.9,173.2z"/>
			<path class="st4" d="M247.2,209c-5.4,9.9-19,12.9-19,12.9s-4.7-13,0.7-22.9c5.4-9.9,19-12.9,19-12.9S252.6,199.1,247.2,209z"/>
		</g>
		<g>
			<path class="st4" d="M268.3,175.7c-6.6,9.1-20.4,10.4-20.4,10.4s-3-13.5,3.6-22.6S272,153,272,153S275,166.5,268.3,175.7z"/>
			<path class="st4" d="M244.3,208.7c-6.6,9.1-20.4,10.4-20.4,10.4s-3-13.5,3.6-22.6c6.6-9.1,20.4-10.4,20.4-10.4
				S250.9,199.6,244.3,208.7z"/>
		</g>
		<g>
			<path class="st4" d="M269.5,178.3c-7.7,8.2-21.6,7.7-21.6,7.7s-1.3-13.8,6.4-22c7.7-8.2,21.6-7.7,21.6-7.7
				S277.2,170.1,269.5,178.3z"/>
			<path class="st4" d="M241.5,208.1c-7.7,8.2-21.6,7.7-21.6,7.7s-1.3-13.8,6.4-22c7.7-8.2,21.6-7.7,21.6-7.7
				S249.2,199.9,241.5,208.1z"/>
		</g>
		<g>
			<path class="st4" d="M270.3,181.1c-8.7,7.2-22.4,5-22.4,5s0.4-13.9,9.1-21c8.7-7.2,22.4-5,22.4-5S279,173.9,270.3,181.1z"/>
			<path class="st4" d="M238.8,207.1c-8.7,7.2-22.4,5-22.4,5s0.4-13.9,9.1-21c8.7-7.2,22.4-5,22.4-5S247.5,199.9,238.8,207.1z"/>
		</g>
		<g>
			<path class="st4" d="M270.7,183.9c-9.5,6-22.8,2.1-22.8,2.1s2.2-13.7,11.7-19.7c9.5-6,22.8-2.1,22.8-2.1S280.3,177.9,270.7,183.9
				z"/>
			<path class="st4" d="M236.2,205.8c-9.5,6-22.8,2.1-22.8,2.1s2.2-13.7,11.7-19.7c9.5-6,22.8-2.1,22.8-2.1S245.7,199.8,236.2,205.8
				z"/>
		</g>
		<g>
			<path class="st4" d="M270.8,186.8c-10.2,4.8-22.9-0.8-22.9-0.8s3.9-13.3,14.1-18.1c10.2-4.8,22.9,0.8,22.9,0.8
				S281,182,270.8,186.8z"/>
			<path class="st4" d="M233.8,204.2c-10.2,4.8-22.9-0.8-22.9-0.8s3.9-13.3,14.1-18.1c10.2-4.8,22.9,0.8,22.9,0.8
				S244,199.4,233.8,204.2z"/>
		</g>
		<g>
			<path class="st4" d="M270.5,189.7c-10.7,3.5-22.6-3.6-22.6-3.6s5.5-12.7,16.2-16.2c10.7-3.5,22.6,3.6,22.6,3.6
				S281.3,186.2,270.5,189.7z"/>
			<path class="st4" d="M231.7,202.3c-10.7,3.5-22.6-3.6-22.6-3.6s5.5-12.7,16.2-16.2c10.7-3.5,22.6,3.6,22.6,3.6
				S242.4,198.8,231.7,202.3z"/>
		</g>
		<g>
			<path class="st4" d="M269.9,192.5c-11.1,2.1-22-6.4-22-6.4s7.1-11.9,18.1-14c11.1-2.1,22,6.4,22,6.4S281,190.4,269.9,192.5z"/>
			<path class="st4" d="M229.8,200.1c-11.1,2.1-22-6.4-22-6.4s7.1-11.9,18.1-14c11.1-2.1,22,6.4,22,6.4S240.8,198,229.8,200.1z"/>
		</g>
		<g>
			<path class="st4" d="M268.9,195.2c-11.3,0.7-21-9.2-21-9.2s8.5-10.9,19.8-11.6s21,9.2,21,9.2S280.2,194.5,268.9,195.2z"/>
			<path class="st4" d="M228.1,197.7c-11.3,0.7-21-9.2-21-9.2s8.5-10.9,19.8-11.6c11.3-0.7,21,9.2,21,9.2S239.4,197,228.1,197.7z"/>
		</g>
		<g>
			<path class="st4" d="M267.6,197.8c-11.3-0.7-19.7-11.7-19.7-11.7s9.8-9.8,21.1-9.1c11.3,0.7,19.7,11.7,19.7,11.7
				S278.9,198.5,267.6,197.8z"/>
			<path class="st4" d="M226.8,195.1c-11.3-0.7-19.7-11.7-19.7-11.7s9.8-9.8,21.1-9.1s19.7,11.7,19.7,11.7S238.1,195.9,226.8,195.1z
				"/>
		</g>
		<g>
			<path class="st4" d="M266,200.2c-11.1-2.1-18.1-14.1-18.1-14.1s11-8.5,22-6.3c11.1,2.1,18.1,14.1,18.1,14.1
				S277.1,202.3,266,200.2z"/>
			<path class="st4" d="M225.9,192.4c-11.1-2.1-18.1-14.1-18.1-14.1s11-8.5,22-6.3c11.1,2.1,18.1,14.1,18.1,14.1
				S236.9,194.6,225.9,192.4z"/>
		</g>
		<g>
			<path class="st4" d="M264.1,202.3c-10.7-3.5-16.2-16.3-16.2-16.3s11.9-7,22.7-3.5c10.7,3.5,16.2,16.3,16.2,16.3
				S274.8,205.8,264.1,202.3z"/>
			<path class="st4" d="M225.2,189.6c-10.7-3.5-16.2-16.3-16.2-16.3s11.9-7,22.7-3.5c10.7,3.5,16.2,16.3,16.2,16.3
				S236,193.1,225.2,189.6z"/>
		</g>
		<g>
			<path class="st4" d="M261.9,204.2c-10.2-4.8-14-18.2-14-18.2s12.7-5.5,22.9-0.7c10.2,4.8,14,18.2,14,18.2
				S272.1,209.1,261.9,204.2z"/>
			<path class="st4" d="M225,186.7c-10.2-4.8-14-18.2-14-18.2s12.7-5.5,22.9-0.7c10.2,4.8,14,18.2,14,18.2S235.2,191.6,225,186.7z"
				/>
		</g>
		<g>
			<path class="st4" d="M259.5,205.8c-9.5-6.1-11.6-19.8-11.6-19.8s13.3-3.8,22.8,2.2c9.5,6.1,11.6,19.8,11.6,19.8
				S269,211.9,259.5,205.8z"/>
			<path class="st4" d="M225.1,183.8c-9.5-6.1-11.6-19.8-11.6-19.8s13.3-3.8,22.8,2.2c9.5,6.1,11.6,19.8,11.6,19.8
				S234.6,189.9,225.1,183.8z"/>
		</g>
		<g>
			<path class="st4" d="M256.9,207.1c-8.7-7.2-9-21.1-9-21.1s13.7-2.1,22.4,5.1s9,21.1,9,21.1S265.6,214.4,256.9,207.1z"/>
			<path class="st4" d="M225.5,181c-8.7-7.2-9-21.1-9-21.1s13.7-2.1,22.4,5.1s9,21.1,9,21.1S234.2,188.2,225.5,181z"/>
		</g>
		<g>
			<path class="st4" d="M254.2,208.1c-7.7-8.3-6.3-22-6.3-22s13.9-0.4,21.6,7.8c7.7,8.3,6.3,22,6.3,22S261.9,216.4,254.2,208.1z"/>
			<path class="st4" d="M226.3,178.2c-7.7-8.3-6.3-22-6.3-22s13.9-0.4,21.6,7.8c7.7,8.3,6.3,22,6.3,22S234,186.5,226.3,178.2z"/>
		</g>
		<g>
			<path class="st4" d="M251.4,208.7c-6.6-9.2-3.5-22.7-3.5-22.7s13.8,1.3,20.4,10.5c6.6,9.2,3.5,22.7,3.5,22.7
				S258,217.9,251.4,208.7z"/>
			<path class="st4" d="M227.5,175.6c-6.6-9.2-3.5-22.7-3.5-22.7s13.8,1.3,20.4,10.5c6.6,9.2,3.5,22.7,3.5,22.7
				S234.1,184.7,227.5,175.6z"/>
		</g>
		<g>
			<path class="st4" d="M248.5,209c-5.4-9.9-0.6-22.9-0.6-22.9s13.5,3.1,18.9,13s0.6,22.9,0.6,22.9S253.9,218.9,248.5,209z"/>
			<path class="st4" d="M229,173.1c-5.4-9.9-0.6-22.9-0.6-22.9s13.5,3.1,18.9,13c5.4,9.9,0.6,22.9,0.6,22.9S234.4,183,229,173.1z"/>
		</g>
		<g>
			<path class="st4" d="M245.7,208.9c-4.1-10.5,2.2-22.8,2.2-22.8s13,4.7,17.1,15.2c4.1,10.5-2.2,22.8-2.2,22.8
				S249.8,219.4,245.7,208.9z"/>
			<path class="st4" d="M230.8,170.8c-4.1-10.5,2.2-22.8,2.2-22.8s13,4.7,17.1,15.2c4.1,10.5-2.2,22.8-2.2,22.8
				S234.9,181.3,230.8,170.8z"/>
		</g>
		<g>
			<path class="st4" d="M242.8,208.4c-2.8-10.9,5.1-22.4,5.1-22.4s12.3,6.3,15.1,17.3s-5.1,22.4-5.1,22.4S245.6,219.4,242.8,208.4z"
				/>
			<path class="st4" d="M232.8,168.8c-2.8-10.9,5.1-22.4,5.1-22.4s12.3,6.3,15.1,17.3c2.8,10.9-5.1,22.4-5.1,22.4
				S235.6,179.7,232.8,168.8z"/>
		</g>
		<g>
			<path class="st4" d="M240,207.6c-1.4-11.2,7.9-21.5,7.9-21.5s11.4,7.8,12.8,19c1.4,11.2-7.9,21.5-7.9,21.5S241.4,218.8,240,207.6
				z"/>
			<path class="st4" d="M235.1,167c-1.4-11.2,7.9-21.5,7.9-21.5s11.4,7.8,12.8,19c1.4,11.2-7.9,21.5-7.9,21.5S236.5,178.2,235.1,167
				z"/>
		</g>
	</g>
</g>
<g id="Layer_4">
	<g>
		<g>
			<g>
				<g id="XMLID_1_">
					<polygon class="st5" points="327.8,192.7 327.6,193.6 323.2,192.9 323.4,191.9 					"/>
					<polygon class="st5" points="328.1,181.3 328.3,182.3 326.2,182.6 326,181.7 					"/>
					<polygon class="st6" points="327.1,195 326.9,195.9 322.6,195.2 322.6,195.2 322.7,195.2 322.8,194.2 					"/>
					<polygon class="st6" points="327.3,190.2 327.1,191.2 324.6,190.7 324.8,189.7 					"/>
					<polygon class="st7" points="327.3,179 327.4,180 323,180.8 322.8,179.8 					"/>
					<polygon class="st8" points="326.9,184 327,184.9 324.8,185.3 324.6,184.4 					"/>
					<polygon class="st7" points="325.1,197 325,198 320.7,197.3 320.8,196.3 					"/>
					<polygon class="st8" points="323.6,212.5 323.3,213.5 321.3,212.9 321.5,212 320.3,211.7 320.3,211.7 					"/>
					<polygon class="st6" points="323.7,210.1 323.8,211.1 319.1,209.9 319.3,209 					"/>
					<polygon class="st5" points="326,181.7 326.2,182.6 325,182.8 324.8,181.9 324.8,181.9 					"/>
					<polygon class="st5" points="324.8,189.7 324.6,190.7 322,190.3 322.2,189.3 					"/>
					<polygon class="st6" points="325.6,176.9 325.8,177.9 323.6,178.3 323.4,177.3 					"/>
					<polygon class="st8" points="323.1,207.5 322.9,208.4 320.7,207.9 321,207 					"/>
					<polygon class="st6" points="324.8,181.9 325,182.8 320.6,183.6 320.5,182.7 					"/>
					<polygon class="st7" points="324.6,184.4 324.8,185.3 322.7,185.7 322.5,184.7 					"/>
					
						<rect x="322.2" y="191.7" transform="matrix(0.1687 -0.9857 0.9857 0.1687 78.6879 477.866)" class="st6" width="1" height="1.2"/>
					<polygon class="st8" points="321.5,212 321.3,212.9 320.1,212.6 320.3,211.7 					"/>
					<polygon class="st7" points="321.4,214.4 321,215.3 318.7,214.8 319,213.8 					"/>
					<polygon class="st7" points="322,204.7 321.8,205.7 319.2,205.1 319.5,204.1 					"/>
					<polygon class="st5" points="322.8,194.2 322.7,195.2 322.6,195.2 322.7,194.2 					"/>
					<polygon class="st6" points="322.3,199 322.2,199.9 320.1,199.6 320.3,198.6 					"/>
					<polygon class="st5" points="322.7,194.2 322.6,195.2 318.1,194.4 318.3,193.4 					"/>
					<polygon class="st6" points="323.4,177.3 323.6,178.3 322.4,178.5 322.2,177.5 					"/>
					<polygon class="st8" points="319.8,220.2 319.2,221.1 317.1,219.7 317.7,218.9 					"/>
					<polygon class="st5" points="321,206.9 321,207 319.8,206.6 					"/>
					<polygon class="st8" points="321,207 320.7,207.9 319.5,207.6 319.8,206.6 					"/>
					<polygon class="st6" points="324.4,163.4 324.7,164.4 320.6,165.8 320.3,164.9 					"/>
					<polygon class="st8" points="323.5,174.8 323.7,175.8 321.1,176.3 320.9,175.3 					"/>
					<polygon class="st5" points="323.4,177.3 323.4,177.3 322.2,177.5 322.4,178.5 318,179.3 317.8,178.3 					"/>
					<polygon class="st6" points="322.1,191.7 322,192.7 319.8,192.3 320,191.3 					"/>
					<polygon class="st7" points="320.3,211.7 320.1,212.6 315.8,211.6 316,210.6 					"/>
					
						<rect x="316.6" y="219.7" transform="matrix(0.5483 -0.8363 0.8363 0.5483 -42.3441 365.433)" class="st6" width="1" height="4.5"/>
					<polygon class="st7" points="322.8,179.8 323,180.8 322.9,180.8 322.7,179.8 					"/>
					<polygon class="st8" points="322.7,179.8 322.9,180.8 318.6,181.6 318.4,180.6 					"/>
					<polygon class="st6" points="323.7,166.2 324,167.2 319.8,168.6 319.5,167.7 					"/>
					<polygon class="st7" points="323.8,161.1 324.2,162.1 318.7,164 318.7,164 319.9,163.5 319.6,162.6 					"/>
					
						<rect x="319.6" y="196.1" transform="matrix(0.1695 -0.9855 0.9855 0.1695 72.0324 478.8313)" class="st8" width="1" height="1.2"/>
					<polygon class="st7" points="315.4,205.5 319.8,206.6 319.5,207.6 315.2,206.5 					"/>
					<polygon class="st7" points="319,213.8 318.7,214.8 319,213.8 					"/>
					<polygon class="st8" points="319,213.8 318.7,214.8 317,214.3 317,213.3 					"/>
					<polygon class="st5" points="320.3,198.6 320.1,199.6 317.8,199.2 318,198.2 					"/>
					<polygon class="st5" points="319.3,209 319.1,209.9 319,209.9 319.2,209 					"/>
					<polygon class="st5" points="319.2,209 319,209.9 315,208.8 315,207.9 					"/>
					<polygon class="st6" points="317.7,224.6 317.1,225.4 313.5,223 314.1,222.2 314,222.2 314,222.1 					"/>
					<polygon class="st8" points="319.5,204.1 319.2,205.1 316.8,204.4 317,203.5 					"/>
					<polygon class="st7" points="321.8,169.5 322.1,170.4 320.1,171.1 319.8,170.2 					"/>
					<polygon class="st7" points="317.7,218.9 317.1,219.7 314.9,218.2 315.5,217.4 					"/>
					<polygon class="st8" points="319.6,196.1 319.4,197.1 317.3,196.7 317.5,195.7 					"/>
					<polygon class="st7" points="322.2,159.2 322.5,160.1 320.2,160.9 319.8,160 					"/>
					<polygon class="st7" points="320.9,175.3 321.1,176.3 318.6,176.7 318.4,175.8 					"/>
					<polygon class="st8" points="319.8,170.2 320.1,171.1 318.1,171.9 317.6,171 					"/>
					<polygon class="st5" points="320.3,164.9 320.6,165.8 316.2,167.4 315.9,166.4 					"/>
					<polygon class="st5" points="315.1,225.7 314.5,226.5 310.9,224.1 311.4,223.3 					"/>
					<polygon class="st5" points="315.5,220.3 314.9,221.1 313.9,220.4 314.4,219.6 					"/>
					<polygon class="st5" points="319.5,167.7 319.8,168.6 318.7,169 318.4,168.1 					"/>
					
						<rect x="318.5" y="162.8" transform="matrix(0.9435 -0.3314 0.3314 0.9435 -36.0769 114.9829)" class="st8" width="1.2" height="1"/>
					<polygon class="st8" points="319.8,160 320.2,160.9 320.1,160.9 					"/>
					<polygon class="st8" points="319.8,160 320.1,160.9 317.7,161.8 317.3,160.9 					"/>
					<polygon class="st8" points="319.9,154 320.5,154.8 318.6,156 318,155.2 					"/>
					<polygon class="st8" points="319.6,162.6 319.6,162.6 318.4,163 318.7,164 316.7,164.7 316.3,163.8 					"/>
					<polygon class="st5" points="320.1,151.1 320.6,151.9 318.8,153.1 318.3,152.3 					"/>
					
						<rect x="312.8" y="218.3" transform="matrix(0.5483 -0.8363 0.8363 0.5483 -41.9753 361.088)" class="st5" width="1" height="2.2"/>
					<polygon class="st6" points="314.1,222.2 313.5,223 313.5,223 314,222.2 					"/>
					<polygon class="st5" points="314,222.2 313.5,223 313.5,223 313.5,223 309.7,220.5 310.2,219.6 					"/>
					<polygon class="st5" points="318.4,168.1 318.7,169 316.7,169.7 316.3,168.8 					"/>
					<polygon class="st5" points="318.6,149.2 319.2,150 315.3,152.5 314.8,151.7 					"/>
					<polygon class="st6" points="318,155.2 318.6,156 318,155.2 					"/>
					<polygon class="st7" points="318,155.2 318.6,156 316.8,157.2 316.3,156.4 					"/>
					
						<rect x="317.4" y="152.5" transform="matrix(0.8388 -0.5444 0.5444 0.8388 -32.049 197.7934)" class="st5" width="1.2" height="1"/>
					<polygon class="st6" points="311.8,226.4 311.2,227.2 309.4,226 310,225.2 					"/>
					<polygon class="st6" points="317.2,152.9 317.8,153.8 314.1,156.2 313.5,155.3 					"/>
					<polygon class="st6" points="311.4,223.3 310.9,224.1 309.8,223.4 310.4,222.6 					"/>
					<polygon class="st6" points="310.9,224.1 310.9,224.1 308,222.3 308.6,221.4 310.4,222.6 309.8,223.4 					"/>
					
						<rect x="308.3" y="223.8" transform="matrix(0.5483 -0.8363 0.8363 0.5483 -48.676 359.8396)" class="st5" width="1" height="2.3"/>
					<polygon class="st8" points="308.8,237.6 308.2,238.4 304.6,235.6 305.2,234.8 					"/>
					<polygon class="st8" points="309.1,234.9 308.7,235.9 306.7,234.4 306.7,234.4 307.3,233.6 					"/>
					<polygon class="st6" points="316.4,148 316.9,148.9 315.1,150.1 314.5,149.2 					"/>
					<polygon class="st5" points="309,231.8 308.5,232.7 306.3,231 306.9,230.2 					"/>
					<polygon class="st8" points="307.5,239.6 306.9,240.4 305.2,239.1 305.8,238.3 					"/>
					<polygon class="st5" points="314.8,151.7 315.3,152.5 315.3,152.5 314.7,151.7 					"/>
					
						<rect x="311" y="152.8" transform="matrix(0.8354 -0.5496 0.5496 0.8354 -32.7132 197.3602)" class="st6" width="4.3" height="1"/>
					<polygon class="st6" points="314.5,149.2 315.1,150.1 314,150.7 313.5,149.9 					"/>
					<polygon class="st8" points="307.3,233.6 306.7,234.4 306.7,234.4 305.7,233.6 306.3,232.8 					"/>
					<polygon class="st7" points="306.9,230.2 306.3,231 306.9,230.2 					"/>
					<polygon class="st6" points="304.9,228.6 306.9,230.2 306.3,231 304.3,229.4 					"/>
					<polygon class="st5" points="313.5,149.9 314,150.7 310.2,153.2 309.7,152.3 					"/>
					
						<rect x="303.8" y="229.6" transform="matrix(0.6097 -0.7926 0.7926 0.6097 -65.0375 331.6563)" class="st7" width="1" height="4.5"/>
					<polygon class="st8" points="305.8,238.3 305.2,239.1 304.3,238.3 304.9,237.5 					"/>
					
						<rect x="311.2" y="147.7" transform="matrix(0.8388 -0.5444 0.5444 0.8388 -30.2989 193.9966)" class="st5" width="2.6" height="1"/>
					<polygon class="st5" points="304.8,240.4 304.2,241.2 302.4,239.8 303,239 					"/>
					<polygon class="st8" points="305.2,234.8 304.6,235.6 304.6,235.6 305.2,234.8 					"/>
					
						<rect x="302.7" y="231.7" transform="matrix(0.6097 -0.7926 0.7926 0.6097 -67.0415 331.5562)" class="st7" width="1" height="4.3"/>
					<polygon class="st7" points="304.9,237.5 304.3,238.3 300.8,235.7 301.4,234.9 					"/>
					<polygon class="st6" points="311.1,148.5 311.6,149.3 309.5,150.7 309,149.8 311.1,148.5 					"/>
					<polygon class="st6" points="303,239 302.4,239.8 302.4,239.8 					"/>
					<polygon class="st6" points="303,239 302.4,239.8 300.8,238.6 301.3,237.8 					"/>
					<g>
						<polygon class="st8" points="301.3,245.2 300.4,245.8 299,243.7 299.8,243.1 						"/>
						
							<rect x="297.6" y="243.5" transform="matrix(0.8233 -0.5676 0.5676 0.8233 -86.8131 212.6214)" class="st6" width="1" height="4.5"/>
						<polygon class="st6" points="297.7,248.4 296.9,249 294.4,245.4 295.2,244.9 295.2,244.8 295.2,244.8 						"/>
						<polygon class="st7" points="299.8,243.1 299,243.7 297.4,241.4 298.3,241 						"/>
						<polygon class="st5" points="294.8,248.5 294,249.1 291.5,245.4 292.4,244.9 						"/>
						<polygon class="st5" points="297.3,243.6 296.5,244.2 295.7,243.2 296.6,242.6 						"/>
						
							<rect x="295" y="240.9" transform="matrix(0.8233 -0.5676 0.5676 0.8233 -85.1301 210.4758)" class="st5" width="1" height="2.2"/>
						<polygon class="st6" points="295.2,244.9 294.4,245.4 294.4,245.4 295.2,244.8 						"/>
						<polygon class="st5" points="295.2,244.8 294.4,245.4 294.4,245.4 294.4,245.4 291.8,241.6 292.6,241.1 						"/>
						<polygon class="st6" points="291.5,247.8 290.7,248.4 289.5,246.7 290.3,246.1 						"/>
						<polygon class="st6" points="292.4,244.9 291.5,245.4 290.8,244.4 291.7,243.9 						"/>
						<polygon class="st6" points="291.5,245.4 291.5,245.5 289.6,242.7 290.4,242.1 291.7,243.9 290.8,244.4 						"/>
						
							<rect x="288.8" y="244.3" transform="matrix(0.8233 -0.5676 0.5676 0.8233 -88.2058 207.5249)" class="st5" width="1" height="2.3"/>
					</g>
					<g>
						<polygon class="st8" points="284.8,257 283.9,257.5 281.6,253.5 282.5,253 						"/>
						<polygon class="st8" points="286,254.6 285.2,255.3 284,253.2 284,253.2 284.9,252.7 						"/>
						<polygon class="st5" points="287.1,251.6 286.2,252.1 284.9,249.9 285.8,249.4 						"/>
						<polygon class="st8" points="282.8,258.3 281.9,258.8 280.9,257 281.7,256.5 						"/>
						<polygon class="st8" points="284.9,252.7 284,253.2 284,253.2 283.4,252.1 284.3,251.6 						"/>
						<polygon class="st7" points="285.8,249.4 284.9,249.9 285.8,249.4 						"/>
						<polygon class="st6" points="284.5,247.2 285.8,249.4 284.9,249.9 283.6,247.7 						"/>
						
							<rect x="282.2" y="247.7" transform="matrix(0.8638 -0.5039 0.5039 0.8638 -87.4274 176.4959)" class="st7" width="1" height="4.5"/>
						<polygon class="st8" points="281.7,256.5 280.9,257 280.3,255.9 281.1,255.4 						"/>
						<polygon class="st5" points="280,258.2 279.1,258.6 277.9,256.6 278.8,256.1 						"/>
						<polygon class="st8" points="282.5,253 281.6,253.5 281.6,253.5 282.4,253 						"/>
						
							<rect x="280.4" y="249.2" transform="matrix(0.8638 -0.5039 0.5039 0.8638 -88.385 175.7971)" class="st7" width="1" height="4.3"/>
						<polygon class="st7" points="281.1,255.4 280.3,255.9 278,252.1 278.9,251.6 						"/>
						<polygon class="st6" points="278.8,256.1 277.9,256.6 277.9,256.6 						"/>
						<polygon class="st6" points="278.8,256.1 277.9,256.6 276.9,254.8 277.7,254.3 						"/>
					</g>
					<polygon class="st8" points="274.8,261.1 273.8,261.3 273.3,258.9 274.2,258.6 					"/>
					
						<rect x="271.2" y="258.2" transform="matrix(0.9771 -0.2128 0.2128 0.9771 -49.186 63.7657)" class="st6" width="1" height="4.5"/>
					<polygon class="st6" points="270.3,262.7 269.3,262.9 268.4,258.7 269.3,258.5 269.3,258.4 269.3,258.4 					"/>
					<polygon class="st7" points="274.2,258.6 273.3,258.9 272.7,256.3 273.7,256.1 					"/>
					<polygon class="st5" points="267.6,261.7 266.6,261.9 265.7,257.6 266.7,257.4 					"/>
					<polygon class="st5" points="271.7,258.1 270.7,258.3 270.5,257.1 271.4,256.9 					"/>
					
						<rect x="270.2" y="254.8" transform="matrix(0.9771 -0.2128 0.2128 0.9771 -48.2547 63.4551)" class="st5" width="1" height="2.2"/>
					<polygon class="st6" points="269.3,258.5 268.4,258.7 268.4,258.6 269.3,258.4 					"/>
					<polygon class="st5" points="269.3,258.4 268.4,258.6 268.4,258.7 268.4,258.7 267.4,254.2 268.4,254 					"/>
					<polygon class="st6" points="264.8,260.1 263.8,260 263.4,258 264.3,257.8 					"/>
					<polygon class="st6" points="266.7,257.4 265.7,257.6 265.5,256.4 266.4,256.2 					"/>
					<polygon class="st6" points="265.7,257.6 265.7,257.6 265,254.3 266,254.1 266.4,256.2 265.5,256.4 					"/>
					
						<rect x="263.1" y="255.6" transform="matrix(0.9771 -0.2128 0.2128 0.9771 -48.5932 61.9585)" class="st5" width="1" height="2.3"/>
					<polygon class="st8" points="254.8,265.8 253.8,266 253.2,261.5 254.2,261.3 					"/>
					<polygon class="st8" points="256.8,264.1 255.9,264.2 255.6,262.1 255.6,262.1 256.5,261.9 					"/>
					<polygon class="st5" points="259,261.8 258,261.9 257.6,259.3 258.6,259.2 					"/>
					<polygon class="st8" points="252.5,266.3 251.5,266.5 251.2,264.4 252.2,264.2 					"/>
					<polygon class="st8" points="256.5,261.9 255.6,262.1 255.6,262.1 255.4,260.8 256.4,260.7 					"/>
					<polygon class="st7" points="258.6,259.2 257.6,259.3 258.6,259.2 					"/>
					<polygon class="st6" points="258.3,256.7 258.6,259.2 257.6,259.3 257.3,256.7 					"/>
					
						<rect x="255.1" y="256.3" transform="matrix(0.9904 -0.1385 0.1385 0.9904 -33.3504 37.8939)" class="st7" width="1" height="4.5"/>
					<polygon class="st8" points="252.2,264.2 251.2,264.4 251,263.1 252,263 					"/>
					<polygon class="st5" points="249.9,265 249,265.2 248.6,262.9 249.6,262.8 					"/>
					<polygon class="st8" points="254.2,261.3 253.2,261.5 253.2,261.4 254.2,261.3 					"/>
					
						<rect x="252.9" y="257" transform="matrix(0.9904 -0.1385 0.1385 0.9904 -33.4605 37.5984)" class="st7" width="1" height="4.3"/>
					<polygon class="st7" points="252,263 251,263.1 250.4,258.8 251.4,258.7 					"/>
					<polygon class="st6" points="249.6,262.8 248.6,262.9 248.6,262.9 					"/>
					<polygon class="st6" points="249.6,262.8 248.6,262.9 248.3,260.8 249.3,260.7 					"/>
					<polygon class="st8" points="310.4,138.9 311,139.7 307.5,142.3 306.9,141.6 					"/>
					
						<rect x="308.3" y="142.8" transform="matrix(0.794 -0.6079 0.6079 0.794 -23.3851 217.5914)" class="st6" width="2.1" height="1"/>
					<polygon class="st8" points="310.2,136.1 310.8,136.9 307.4,139.5 306.8,138.7 					"/>
					<polygon class="st5" points="308.2,143.5 308.8,144.3 307,145.7 306.4,144.9 					"/>
					<polygon class="st7" points="309,134 309.6,134.8 306,137.5 305.4,136.7 					"/>
					<polygon class="st7" points="306.9,141.6 307.5,142.3 306.5,143.1 306,142.3 					"/>
					<polygon class="st8" points="306.8,138.7 307.4,139.5 307.3,139.5 306.7,138.7 					"/>
					<polygon class="st7" points="306.7,138.7 307.3,139.5 303.7,142.3 303.1,141.5 					"/>
					<polygon class="st5" points="306.9,132.6 307.5,133.4 305.4,135 304.9,134.2 					"/>
					
						<rect x="304.3" y="142.8" transform="matrix(0.7985 -0.6021 0.6021 0.7985 -24.7426 212.7514)" class="st7" width="2.1" height="1"/>
					<polygon class="st8" points="305.4,136.7 306,137.5 305.1,138.2 304.4,137.5 					"/>
					<polygon class="st7" points="304.9,134.2 305.4,135 304.8,134.2 					"/>
					<polygon class="st6" points="304.8,134.2 305.4,135 303.3,136.6 302.7,135.8 					"/>
					<polygon class="st8" points="304.4,137.5 305.1,138.2 303.3,139.6 302.7,138.8 					"/>
					<polygon class="st8" points="302.9,129.5 301.6,131.4 300.8,130.9 302.1,129 					"/>
					<polygon class="st7" points="301.6,131.4 300.5,133.2 299.6,132.6 300.8,130.9 					"/>
					<polygon class="st7" points="301.9,126.7 300.7,128.5 299.9,127.9 301.1,126.1 					"/>
					
						<rect x="299.4" y="128.2" transform="matrix(0.5561 -0.8311 0.8311 0.5561 26.2024 306.4509)" class="st7" width="1.2" height="1"/>
					<polygon class="st8" points="300.1,129.5 297.6,133.1 296.8,132.6 299.2,128.9 					"/>
					<polygon class="st5" points="299.7,125.7 297.2,129.5 296.4,129 298.9,125.2 					"/>
					<polygon class="st6" points="297.2,129.5 297.1,129.6 296.3,129 296.4,129 					"/>
					<polygon class="st6" points="297.1,129.6 295,132.8 293.9,132.6 296.4,129 296.4,129 296.3,129 					"/>
					<polygon class="st8" points="297,125.4 295.8,127.3 295,126.7 294.3,127.7 294.3,127.7 296.2,124.9 					"/>
					<polygon class="st8" points="295.8,127.3 295.1,128.3 294.3,127.7 295,126.7 					"/>
					<polygon class="st7" points="295.1,128.3 292.6,132 291.8,131.5 294.3,127.7 					"/>
					
						<rect x="291.6" y="125.9" transform="matrix(0.5553 -0.8316 0.8316 0.5553 25.1773 299.8181)" class="st5" width="2.6" height="1"/>
					<polygon class="st6" points="292.6,127.7 291.2,129.8 290.4,129.3 291.8,127.2 					"/>
					<polygon class="st5" points="289.2,122.3 288.2,124.2 287.3,123.7 288.3,121.9 					"/>
					
						<rect x="286" y="124.4" transform="matrix(0.4906 -0.8714 0.8714 0.4906 37.4235 313.8644)" class="st6" width="2.3" height="1"/>
					
						<rect x="284.6" y="120.2" transform="matrix(0.49 -0.8717 0.8717 0.49 41.0479 311.5875)" class="st6" width="4.4" height="1"/>
					<polygon class="st7" points="287,116.5 284.9,120.3 284,119.8 286.2,116 					"/>
					<polygon class="st5" points="286.2,122.9 285.6,123.9 284.7,123.4 285.3,122.4 					"/>
					<polygon class="st5" points="285.6,123.9 284.5,125.8 283.6,125.3 284.7,123.4 					"/>
					<polygon class="st8" points="284.9,120.3 284.8,120.3 284,119.9 284,119.8 					"/>
					
						<rect x="281" y="121.6" transform="matrix(0.4904 -0.8715 0.8715 0.4904 37.9577 309.1045)" class="st8" width="4.6" height="1"/>
					
						<rect x="281.3" y="116.3" transform="matrix(0.4917 -0.8708 0.8708 0.4917 42.4272 306.2856)" class="st6" width="4.5" height="1"/>
					<polygon class="st5" points="282.9,119 282.3,120.1 281.4,119.6 282,118.5 					"/>
					
						<rect x="280.2" y="120.3" transform="matrix(0.4908 -0.8713 0.8713 0.4908 37.9888 306.5997)" class="st5" width="2.2" height="1"/>
					<polygon class="st8" points="282.6,114.7 281.3,116.9 280.5,116.4 281.7,114.2 					"/>
					
						<rect x="278.9" y="117.3" transform="matrix(0.4907 -0.8713 0.8713 0.4907 40.0515 304.1837)" class="st7" width="2.6" height="1"/>
					<polygon class="st6" points="277,112.3 276.7,114.6 275.7,114.4 276.1,112.1 					"/>
					<polygon class="st5" points="276.7,114.6 276.3,116.6 275.3,116.5 275.7,114.4 					"/>
					<polygon class="st8" points="275,110.1 274.6,112.2 273.7,112 274,109.9 					"/>
					<polygon class="st7" points="274.6,112.2 274.4,113.4 273.5,113.3 273.7,112 					"/>
					<polygon class="st7" points="274.4,113.4 273.7,117.8 272.7,117.6 273.5,113.3 					"/>
					<polygon class="st8" points="272.6,110.1 271.8,114.6 270.8,114.5 271.6,110 					"/>
					<polygon class="st7" points="271.8,114.6 271.8,114.7 271.8,114.7 270.8,114.6 270.8,114.5 					"/>
					<polygon class="st7" points="271.8,114.7 271.1,119 270.1,118.8 270.8,114.6 					"/>
					<polygon class="st5" points="270,111 269.6,113.2 268.7,113 269,110.8 					"/>
					<polygon class="st5" points="269.6,113.2 269.4,114.4 269.6,113.2 					"/>
					<polygon class="st6" points="269.6,113.2 269.4,114.4 268.5,114.2 268.7,113 					"/>
					<polygon class="st6" points="269.4,114.4 268.7,118.8 267.7,118.6 268.5,114.2 					"/>
					<polygon class="st5" points="267.4,112.3 266.9,114.9 266,114.7 266.4,112.1 					"/>
					<polygon class="st6" points="266.9,114.9 266.5,117.4 265.6,117.2 266,114.7 					"/>
					<polygon class="st7" points="266.9,114.9 266,114.7 266,114.7 					"/>
					<polygon class="st8" points="261.6,113.3 261.6,115.6 260.6,115.6 260.6,113.3 					"/>
					<polygon class="st7" points="261.6,111.2 261.6,113.3 260.6,113.3 260.6,111.2 					"/>
					<polygon class="st8" points="261.6,113.3 260.6,113.3 260.6,113.3 					"/>
					<polygon class="st8" points="259.2,113.9 259.2,116.1 258.2,116.1 258.2,114 259.2,114 					"/>
					<polygon class="st8" points="259.2,113.9 259.2,114 258.2,114 258.2,112.7 259.2,112.7 					"/>
					<polygon class="st7" points="259.2,108.3 259.2,112.7 258.2,112.7 258.2,108.3 					"/>
					<polygon class="st5" points="256.8,111.1 256.8,115.7 255.8,115.7 255.8,111.1 					"/>
					<polygon class="st6" points="256.8,106.7 256.8,111.1 255.8,111.1 255.8,106.7 					"/>
					<polygon class="st7" points="254.4,112.1 254.4,114.2 253.4,114.2 253.4,112.1 					"/>
					<polygon class="st7" points="254.4,110.8 254.4,112.1 253.4,112.1 253.4,110.8 					"/>
					<polyline class="st9" points="253.5,106.3 254.4,106.3 254.4,110.8 253.4,110.8 					"/>
					<line class="st9" x1="253.4" y1="112.1" x2="253.4" y2="112.1"/>
					<polygon class="st8" points="252.1,109.8 252,112.4 251.1,112.3 251.1,109.7 					"/>
					<polygon class="st7" points="252.1,107.4 252.1,109.9 251.1,109.9 251.1,107.3 					"/>
				</g>
			</g>
		</g>
		<g>
			<g>
				<g id="XMLID_2_">
					<polygon class="st5" points="167.7,179.1 167.5,180 169.6,180.5 169.8,179.5 					"/>
					<polygon class="st7" points="168.7,176.8 168.4,177.8 172.9,178.7 173.1,177.8 					"/>
					<polygon class="st8" points="169,181.8 168.8,182.7 171,183.2 171.3,182.3 					"/>
					<polygon class="st5" points="169.8,179.5 169.6,180.5 170.8,180.7 171,179.8 171,179.8 					"/>
					<polygon class="st6" points="170.4,174.8 170.2,175.7 172.3,176.2 172.5,175.2 					"/>
					<polygon class="st6" points="171,179.8 170.8,180.7 175.1,181.7 175.3,180.7 					"/>
					<polygon class="st7" points="171.3,182.3 171,183.2 173.1,183.7 173.3,182.7 					"/>
					<polygon class="st6" points="172.5,175.2 172.3,176.2 173.5,176.4 173.7,175.5 					"/>
					<polygon class="st8" points="172.6,172.8 172.4,173.8 174.9,174.3 175.1,173.3 					"/>
					<polygon class="st5" points="172.5,175.2 172.5,175.2 173.7,175.5 173.5,176.4 177.9,177.4 178.1,176.4 					"/>
					<polygon class="st7" points="173.1,177.8 172.9,178.7 173,178.8 173.2,177.8 					"/>
					<polygon class="st8" points="173.2,177.8 173,178.8 177.2,179.7 177.4,178.7 					"/>
					<g>
						<polygon class="st8" points="171.3,210 171.5,210.9 173.1,210.6 173.4,209.5 174.6,209.3 174.6,209.2 						"/>
						<polygon class="st6" points="171.2,207.5 171.4,208.5 175.9,207.6 175.7,206.6 						"/>
						<polygon class="st8" points="172,204.9 172.2,205.9 174.3,205.5 174.1,204.5 						"/>
						<polygon class="st8" points="173.4,209.5 173.1,210.6 174.8,210.2 174.6,209.3 						"/>
						<polygon class="st7" points="173.1,212 173.3,213 175.6,212.5 175.3,211.5 						"/>
						<polygon class="st7" points="173.4,202.3 173.4,203.2 175.9,202.7 175.7,201.7 						"/>
						<polygon class="st5" points="174.1,204.5 174.1,204.5 175.3,204.2 						"/>
						<polygon class="st8" points="174.1,204.5 174.3,205.5 175.5,205.2 175.3,204.2 						"/>
						<polygon class="st7" points="174.6,209.3 174.8,210.2 179.1,209.3 178.9,208.3 						"/>
						<polygon class="st7" points="179.7,203.3 175.3,204.2 175.5,205.2 179.9,204.3 						"/>
						<polygon class="st7" points="175.3,211.5 175.6,212.5 175.4,211.5 						"/>
						<polygon class="st8" points="175.4,211.5 175.6,212.5 177.6,212.1 177.7,211 						"/>
						<polygon class="st5" points="175.7,206.6 175.9,207.6 176,207.5 175.8,206.6 						"/>
						<polygon class="st5" points="175.8,206.6 176,207.5 180.2,206.6 180,205.7 						"/>
						<polygon class="st8" points="175.7,201.7 175.9,202.7 178.4,202.1 178.2,201.2 						"/>
					</g>
					<g>
						<polygon class="st5" points="167.6,190.1 167.8,191.1 172.2,190.5 172.1,189.5 						"/>
						<polygon class="st6" points="168.3,192.4 168.4,193.4 172.8,192.8 172.7,192.8 172.7,192.8 172.5,191.8 						"/>
						<polygon class="st6" points="168.2,187.6 168.4,188.6 170.9,188.3 170.7,187.3 						"/>
						<polygon class="st7" points="170.1,194.6 170.3,195.5 174.6,194.9 174.5,194 						"/>
						<polygon class="st5" points="170.7,187.3 170.9,188.3 173.5,187.9 173.3,186.9 						"/>
						
							<rect x="172.2" y="189.4" transform="matrix(0.9909 -0.1344 0.1344 0.9909 -23.9527 24.942)" class="st6" width="1.2" height="1"/>
						<polygon class="st5" points="172.5,191.8 172.7,192.8 172.7,192.8 172.6,191.8 						"/>
						<polygon class="st6" points="172.9,196.6 173,197.6 175.1,197.3 174.9,196.3 						"/>
						<polygon class="st5" points="172.6,191.8 172.7,192.8 177.3,192.2 177.1,191.2 						"/>
						<polygon class="st6" points="173.3,189.3 173.5,190.3 175.6,190 175.5,189 						"/>
						
							<rect x="174.5" y="193.9" transform="matrix(0.9908 -0.1352 0.1352 0.9908 -24.6688 25.4615)" class="st8" width="1.2" height="1"/>
						<polygon class="st5" points="174.9,196.3 175.1,197.3 177.4,197 177.2,196 						"/>
						<polygon class="st8" points="175.7,193.8 175.8,194.8 177.9,194.5 177.8,193.5 						"/>
					</g>
					<polygon class="st7" points="175.1,173.3 174.9,174.3 177.4,174.8 177.6,173.9 					"/>
					<g>
						<polygon class="st6" points="172,160.8 171.6,161.7 175.7,163.3 176.1,162.4 						"/>
						<polygon class="st6" points="172.6,163.6 172.2,164.5 176.3,166.1 176.7,165.2 						"/>
						<polygon class="st7" points="172.5,158.4 172.1,159.3 177.4,161.4 177.4,161.4 176.3,161 176.6,160.1 						"/>
						<polygon class="st7" points="174.4,166.9 174,167.9 176,168.6 176.3,167.7 						"/>
						<polygon class="st7" points="174.3,156.6 173.9,157.5 176.3,158.4 176.7,157.5 						"/>
						<polygon class="st8" points="176.3,167.7 176,168.6 178.1,169.4 178.5,168.5 						"/>
						<polygon class="st5" points="176.1,162.4 175.7,163.3 180,165 180.4,164.1 						"/>
						<polygon class="st5" points="176.7,165.2 176.3,166.1 177.5,166.6 177.8,165.6 						"/>
						
							<rect x="176.6" y="160.1" transform="matrix(0.3639 -0.9314 0.9314 0.3639 -37.1119 267.153)" class="st8" width="1" height="1.2"/>
						<polygon class="st8" points="176.7,157.5 176.3,158.4 176.3,158.4 						"/>
						<polygon class="st8" points="176.7,157.5 176.3,158.4 178.8,159.4 179.1,158.5 						"/>
						<polygon class="st8" points="176.6,160.1 176.6,160.1 177.8,160.5 177.4,161.4 179.7,162.3 179.9,161.3 						"/>
						<polygon class="st5" points="177.8,165.6 177.5,166.6 179.5,167.3 179.8,166.4 						"/>
					</g>
					<g>
						<polygon class="st8" points="174.8,218 175.3,218.9 177.5,217.6 177,216.7 						"/>
						
							<rect x="175.2" y="219.3" transform="matrix(0.8549 -0.5189 0.5189 0.8549 -88.2884 123.9816)" class="st6" width="4.5" height="1"/>
						<polygon class="st6" points="176.8,222.4 177.3,223.3 181,221 180.5,220.2 180.5,220.1 180.5,220.1 						"/>
						<polygon class="st7" points="177,216.7 177.5,217.6 179.8,216.2 179.3,215.4 						"/>
						<polygon class="st5" points="179.3,223.7 179.9,224.5 183.6,222.2 183.1,221.4 						"/>
						<polygon class="st5" points="179.1,218.2 179.6,219.1 180.7,218.4 180.2,217.6 						"/>
						
							<rect x="180.3" y="216.9" transform="matrix(0.8549 -0.5189 0.5189 0.8549 -86.4847 125.6716)" class="st5" width="2.2" height="1"/>
						<polygon class="st5" points="180.5,220.2 181,221 181,221 180.5,220.1 						"/>
						<polygon class="st5" points="180.5,220.1 181,221 181,221 181,221 184.9,218.6 184.4,217.8 						"/>
						<polygon class="st6" points="182.7,224.4 183.2,225.3 185,224.2 184.5,223.3 						"/>
						<polygon class="st6" points="183.1,221.4 183.6,222.2 184.7,221.6 184.1,220.7 						"/>
						<polygon class="st6" points="183.6,222.2 183.6,222.2 186.5,220.5 186,219.6 184.1,220.7 184.7,221.6 						"/>
						
							<rect x="184.6" y="222.7" transform="matrix(0.8549 -0.5189 0.5189 0.8549 -88.833 128.7394)" class="st5" width="2.3" height="1"/>
					</g>
					<g>
						<polygon class="st8" points="176.6,151.6 176,152.4 177.9,153.7 178.5,152.9 						"/>
						<polygon class="st5" points="176.6,148.8 176,149.6 177.8,150.8 178.4,150 						"/>
						<polygon class="st5" points="178.1,146.9 177.5,147.7 181.3,150.3 181.8,149.5 						"/>
						<polygon class="st6" points="178.5,152.9 177.9,153.7 178.5,152.9 						"/>
						<polygon class="st7" points="178.5,152.9 177.9,153.7 179.6,154.9 180.2,154.1 						"/>
						
							<rect x="178.1" y="150.1" transform="matrix(0.5732 -0.8194 0.8194 0.5732 -47.3036 210.6488)" class="st5" width="1" height="1.2"/>
						<polygon class="st6" points="179.4,150.7 178.8,151.5 182.4,154 183,153.2 						"/>
						<polygon class="st6" points="180.5,145.9 180,146.7 181.8,147.9 182.4,147.1 						"/>
						<polygon class="st5" points="181.8,149.5 181.3,150.3 181.3,150.4 181.9,149.5 						"/>
						
							<rect x="182.9" y="149" transform="matrix(0.5783 -0.8158 0.8158 0.5783 -46.0113 213.358)" class="st6" width="1" height="4.3"/>
						<polygon class="st6" points="182.4,147.1 181.8,147.9 182.8,148.7 183.4,147.8 						"/>
						<polygon class="st5" points="183.4,147.8 182.8,148.7 186.5,151.2 187.1,150.4 						"/>
						
							<rect x="183.9" y="144.9" transform="matrix(0.5732 -0.8194 0.8194 0.5732 -41.0794 213.4606)" class="st5" width="1" height="2.6"/>
						<polygon class="st6" points="185.7,146.5 185.2,147.3 187.3,148.8 187.8,148 185.7,146.5 						"/>
					</g>
					<g>
						<polygon class="st8" points="185,235.4 185.6,236.2 189.3,233.5 188.7,232.7 						"/>
						<polygon class="st8" points="184.9,232.7 185.4,233.5 187.2,232.2 187.2,232.2 186.7,231.4 						"/>
						<polygon class="st5" points="185.2,229.5 185.8,230.3 187.9,228.8 187.3,228 						"/>
						<polygon class="st8" points="186.2,237.4 186.8,238.2 188.6,237 188,236.1 						"/>
						<polygon class="st8" points="186.7,231.4 187.2,232.2 187.2,232.2 188.2,231.5 187.7,230.7 						"/>
						<path class="st7" d="M187.2,228"/>
						<path class="st7" d="M187.8,228.8"/>
						<polygon class="st6" points="189.4,226.5 187.3,228 187.9,228.8 190,227.3 						"/>
						
							<rect x="187.5" y="229.3" transform="matrix(0.8133 -0.5818 0.5818 0.8133 -98.2655 153.3086)" class="st7" width="4.5" height="1"/>
						<polygon class="st8" points="188,236.1 188.6,237 189.6,236.2 189,235.4 						"/>
						<polygon class="st5" points="188.8,238.6 189.4,239.4 191.3,238.1 190.7,237.3 						"/>
						<polygon class="st8" points="188.7,232.7 189.3,233.5 189.3,233.5 188.8,232.7 						"/>
						
							<rect x="188.7" y="231.3" transform="matrix(0.8133 -0.5818 0.5818 0.8133 -99.2488 154.2876)" class="st7" width="4.3" height="1"/>
						<polygon class="st7" points="189,235.4 189.6,236.2 193.1,233.7 192.6,232.9 						"/>
						<polygon class="st6" points="190.8,237 191.4,237.8 191.4,237.8 						"/>
						<polygon class="st6" points="190.7,237.3 191.3,238.1 192.9,236.9 192.5,236 						"/>
					</g>
					<g>
						<polygon class="st8" points="192.7,243.6 193.5,244.2 195,242.1 194.2,241.5 						"/>
						
							<rect x="193.6" y="243.7" transform="matrix(0.5958 -0.8031 0.8031 0.5958 -116.9702 255.9745)" class="st6" width="4.5" height="1"/>
						<polygon class="st6" points="196.2,246.9 197,247.5 199.6,244 198.8,243.4 198.8,243.4 198.8,243.4 						"/>
						<polygon class="st7" points="194.2,241.5 195,242.1 196.7,239.9 195.8,239.4 						"/>
						<polygon class="st5" points="199,247.1 199.8,247.7 202.4,244.1 201.6,243.5 						"/>
						<polygon class="st5" points="196.8,242.1 197.6,242.7 198.3,241.7 197.5,241.1 						"/>
						
							<rect x="197.5" y="240" transform="matrix(0.5958 -0.8031 0.8031 0.5958 -112.9067 256.682)" class="st5" width="2.2" height="1"/>
						<polygon class="st5" points="198.8,243.4 199.6,244 199.6,243.9 198.8,243.4 						"/>
						<polygon class="st5" points="198.8,243.4 199.6,243.9 199.6,244 199.6,244 202.3,240.3 201.5,239.7 						"/>
						<polygon class="st6" points="202.2,246.8 203,247.4 204.2,245.7 203.4,245.2 						"/>
						<polygon class="st6" points="201.6,243.5 202.4,244.1 203.2,243.1 202.4,242.5 						"/>
						<polygon class="st6" points="202.4,244.1 202.4,244.1 204.4,241.4 203.6,240.8 202.4,242.5 203.2,243.1 						"/>
						
							<rect x="203.4" y="244" transform="matrix(0.5958 -0.8031 0.8031 0.5958 -113.7215 263.0831)" class="st5" width="2.3" height="1"/>
					</g>
					<g>
						<polygon class="st8" points="208.7,256 209.6,256.5 212,252.6 211.2,252.1 						"/>
						<polygon class="st8" points="207.6,253.5 208.5,254.1 209.6,252.2 209.6,252.2 208.8,251.7 						"/>
						<polygon class="st5" points="206.6,250.5 207.5,251.1 208.9,248.8 208,248.3 						"/>
						<polygon class="st8" points="210.7,257.4 211.5,257.9 212.7,256.1 211.8,255.5 						"/>
						<polygon class="st8" points="208.8,251.7 209.6,252.2 209.6,252.2 210.3,251.2 209.5,250.6 						"/>
						<polygon class="st7" points="208,248.3 208.9,248.8 208,248.3 						"/>
						<polygon class="st6" points="209.4,246.2 208,248.3 208.9,248.8 210.2,246.7 						"/>
						
							<rect x="208.8" y="248.5" transform="matrix(0.5336 -0.8457 0.8457 0.5336 -112.1292 294.6413)" class="st7" width="4.5" height="1"/>
						<polygon class="st8" points="211.8,255.5 212.7,256.1 213.3,255 212.5,254.5 						"/>
						<polygon class="st5" points="213.5,257.2 214.4,257.7 215.6,255.8 214.8,255.3 						"/>
						<polygon class="st8" points="211.2,252.1 212,252.6 212.1,252.6 211.2,252 						"/>
						
							<rect x="210.6" y="250" transform="matrix(0.5336 -0.8457 0.8457 0.5336 -112.5801 296.7878)" class="st7" width="4.3" height="1"/>
						<polygon class="st7" points="212.5,254.5 213.3,255 215.7,251.3 214.8,250.8 						"/>
						<polygon class="st6" points="214.8,255.3 215.6,255.8 215.6,255.8 						"/>
						<polygon class="st6" points="214.8,255.3 215.6,255.8 216.7,254 215.9,253.4 						"/>
					</g>
					<g>
						<polygon class="st8" points="218.7,260 219.6,260.4 220.2,257.9 219.3,257.7 						"/>
						
							<rect x="219.5" y="259.1" transform="matrix(0.2466 -0.9691 0.9691 0.2466 -84.4696 410.4838)" class="st6" width="4.5" height="1"/>
						<polygon class="st6" points="223.1,261.9 224.1,262.2 225.1,258 224.2,257.7 224.2,257.7 224.2,257.7 						"/>
						<polygon class="st7" points="219.3,257.7 220.2,257.9 220.9,255.4 219.9,255.1 						"/>
						<polygon class="st5" points="225.8,261 226.8,261.3 227.8,257 226.9,256.7 						"/>
						<polygon class="st5" points="221.8,257.3 222.8,257.5 223.1,256.3 222.2,256.1 						"/>
						
							<rect x="221.8" y="254.6" transform="matrix(0.2466 -0.9691 0.9691 0.2466 -79.3079 408.2321)" class="st5" width="2.2" height="1"/>
						<polygon class="st6" points="224.2,257.7 225.1,258 225.2,257.9 224.2,257.7 						"/>
						<polygon class="st5" points="224.2,257.7 225.2,257.9 225.1,258 225.1,258 226.3,253.5 225.3,253.2 						"/>
						<polygon class="st6" points="228.6,259.7 229.7,259.4 230.2,257.4 229.2,257.2 						"/>
						<polygon class="st6" points="226.9,256.7 227.8,257 228.1,255.8 227.2,255.6 						"/>
						<polygon class="st6" points="227.8,257 227.9,257 228.7,253.7 227.7,253.5 227.2,255.6 228.1,255.8 						"/>
						
							<rect x="228.8" y="255.7" transform="matrix(0.2466 -0.9691 0.9691 0.2466 -75.0042 415.9106)" class="st5" width="2.3" height="1"/>
					</g>
					<g>
						<polygon class="st8" points="238.4,265.6 239.4,265.8 240.2,261.3 239.2,261.1 						"/>
						<polygon class="st8" points="236.4,263.8 237.4,264 237.8,261.8 237.8,261.8 236.8,261.7 						"/>
						<polygon class="st5" points="234.4,261.2 235.3,261.6 235.8,259 234.8,258.9 						"/>
						<polygon class="st8" points="240.7,266.2 241.7,266.4 242.1,264.3 241.1,264.1 						"/>
						<polygon class="st8" points="236.8,261.7 237.8,261.8 237.8,261.8 238,260.6 237,260.4 						"/>
						<polygon class="st7" points="234.8,258.9 235.8,259 234.8,258.8 						"/>
						<polygon class="st6" points="235.3,256.4 234.8,258.8 235.8,259 236.2,256.5 						"/>
						
							<rect x="235.7" y="257.8" transform="matrix(0.1729 -0.9849 0.9849 0.1729 -57.6277 447.9901)" class="st7" width="4.5" height="1"/>
						<polygon class="st8" points="241.1,264.1 242.1,264.3 242.3,263.1 241.3,262.9 						"/>
						<polygon class="st5" points="243.3,265 244.3,265.2 244.7,262.9 243.7,262.7 						"/>
						<polygon class="st8" points="239.2,261.1 240.2,261.3 240.2,261.2 239.2,261.1 						"/>
						
							<rect x="237.9" y="258.5" transform="matrix(0.1729 -0.9849 0.9849 0.1729 -56.5534 450.7063)" class="st7" width="4.3" height="1"/>
						<polygon class="st7" points="241.3,262.9 242.3,263.1 243,258.7 242.1,258.6 						"/>
						<polygon class="st6" points="243.7,262.7 244.7,262.9 244.7,262.9 						"/>
						<polygon class="st6" points="243.7,262.7 244.7,262.9 245,260.8 244.1,260.4 						"/>
					</g>
					<g>
						<polygon class="st8" points="186.6,137 186.1,137.7 189.4,140.6 190,139.8 						"/>
						<polygon class="st6" points="187,140.4 186.6,141.2 188,142.5 188.7,141.7 						"/>
						<polygon class="st8" points="186.9,134.2 186.3,135 189.7,137.7 190.3,136.9 						"/>
						<polygon class="st5" points="188.7,141.7 188,142.5 189.8,144 190.4,143.2 						"/>
						<polygon class="st7" points="188.2,132.2 187.6,132.9 191.1,135.8 191.7,135 						"/>
						<polygon class="st7" points="190,139.8 189.4,140.6 190.4,141.3 191,140.6 						"/>
						<polygon class="st8" points="190.3,136.9 189.7,137.7 189.7,137.7 190.3,137 						"/>
						<polygon class="st7" points="190.3,137 189.7,137.7 193.2,140.6 193.9,139.9 						"/>
						<polygon class="st5" points="190.4,130.9 189.8,131.7 191.7,133.3 192.4,132.5 						"/>
						
							<rect x="191" y="140.6" transform="matrix(0.6294 -0.7771 0.7771 0.6294 -39.0936 201.2918)" class="st7" width="1" height="2.1"/>
						<polygon class="st8" points="191.7,135 191.1,135.8 192,136.6 192.7,135.8 						"/>
						<polygon class="st7" points="192.4,132.5 191.7,133.3 192.4,132.5 						"/>
						<polygon class="st6" points="192.4,132.5 191.7,133.3 194,135.1 194.4,134.2 						"/>
						<polygon class="st8" points="192.7,135.8 192,136.6 193.7,137.9 194.3,137.2 						"/>
					</g>
					<polygon class="st8" points="194.4,127.6 195.6,129.6 196.5,129 195.3,127.1 					"/>
					<polygon class="st7" points="195.6,129.6 196.7,131.3 197.6,130.8 196.5,129 					"/>
					<polygon class="st7" points="195.5,124.8 196.6,126.6 197.5,126.1 196.3,124.3 					"/>
					
						<rect x="196.9" y="126.3" transform="matrix(0.8499 -0.5269 0.5269 0.8499 -37.2326 123.0359)" class="st7" width="1" height="1.2"/>
					<polygon class="st8" points="197.3,127.7 199.6,131.4 200.4,130.9 198.1,127.1 					"/>
					<polygon class="st5" points="197.8,123.9 200.1,127.8 201,127.3 198.6,123.4 					"/>
					<polygon class="st6" points="200.1,127.8 200.2,127.9 201,127.3 201,127.3 					"/>
					<polygon class="st6" points="200.2,127.9 202.5,131.5 203.3,131 201,127.3 201,127.3 201,127.3 					"/>
					<polygon class="st8" points="200.4,123.7 201.6,125.6 202.4,125.1 203.1,126.1 203.1,126.1 201.3,123.2 					"/>
					<polygon class="st8" points="201.6,125.6 202.2,126.6 203.1,126.1 202.4,125.1 					"/>
					<polygon class="st7" points="202.2,126.6 204.6,130.5 205.4,130 203.1,126.1 					"/>
					
						<rect x="204" y="123.5" transform="matrix(0.8504 -0.5261 0.5261 0.8504 -35.0678 126.2469)" class="st5" width="1" height="2.6"/>
					<polygon class="st6" points="204.8,126.2 206.1,128.3 206.9,127.8 205.6,125.7 					"/>
					<g>
						<polygon class="st5" points="208.5,121.1 209.4,122.9 210.3,122.5 209.4,120.6 						"/>
						
							<rect x="209.9" y="122.6" transform="matrix(0.8879 -0.46 0.46 0.8879 -33.3358 110.6653)" class="st6" width="1" height="2.3"/>
						
							<rect x="210.4" y="117.3" transform="matrix(0.8882 -0.4594 0.4594 0.8882 -31.3436 110.2523)" class="st6" width="1" height="4.4"/>
						<polygon class="st7" points="210.9,115.3 212.9,119.2 213.7,118.7 211.7,114.9 						"/>
						<polygon class="st5" points="211.5,121.7 212,122.8 212.9,122.3 212.4,121.3 						"/>
						<polygon class="st5" points="212,122.8 213,124.7 213.9,124.2 212.9,122.3 						"/>
						<polygon class="st8" points="212.9,119.2 212.9,119.2 213.8,118.8 213.7,118.7 						"/>
						
							<rect x="213.9" y="118.8" transform="matrix(0.888 -0.4598 0.4598 0.888 -31.651 112.1365)" class="st8" width="1" height="4.6"/>
						
							<rect x="213.8" y="113.5" transform="matrix(0.8874 -0.4611 0.4611 0.8874 -29.2288 111.8566)" class="st6" width="1" height="4.5"/>
						<polygon class="st5" points="214.9,118 215.5,119.1 216.4,118.6 215.8,117.5 						"/>
						
							<rect x="215.9" y="118.7" transform="matrix(0.8878 -0.4602 0.4602 0.8878 -30.8618 113.0422)" class="st5" width="1" height="2.2"/>
						<polygon class="st8" points="215.4,113.7 216.5,115.9 217.4,115.5 216.2,113.2 						"/>
						
							<rect x="217.1" y="115.6" transform="matrix(0.8878 -0.4602 0.4602 0.8878 -29.3825 113.2296)" class="st7" width="1" height="2.6"/>
					</g>
					<polygon class="st6" points="220.9,111.6 221.2,113.9 222.2,113.8 221.9,111.5 					"/>
					<polygon class="st5" points="221.2,113.8 221.4,115.9 222.4,115.7 222.2,113.7 					"/>
					<polygon class="st8" points="223,109.6 223.3,111.5 224.3,111.4 224,109.5 					"/>
					<polygon class="st7" points="223.3,111.5 223.4,112.7 224.4,112.6 224.3,111.3 					"/>
					<polygon class="st7" points="223.4,112.7 224,117 225,116.9 224.4,112.5 					"/>
					<polygon class="st8" points="225.4,109.3 226,113.8 227,113.7 226.4,109.2 					"/>
					<polygon class="st7" points="226,113.8 226,113.9 226,113.9 227,113.8 227,113.7 					"/>
					<polygon class="st7" points="226,113.9 226.6,118.2 227.6,118 227,113.8 					"/>
					<polygon class="st5" points="228,110.2 228.2,112.4 229.2,112.3 228.9,110.1 					"/>
					<polygon class="st5" points="228.2,112.4 228.4,113.6 228.2,112.4 					"/>
					<polygon class="st6" points="228.2,112.4 228.4,113.6 229.4,113.5 229.2,112.3 					"/>
					<polygon class="st6" points="228.4,113.6 229,118.1 230,118 229.4,113.5 					"/>
					<polygon class="st5" points="230.5,111.8 230.9,114.6 231.9,114.5 231.5,111.9 					"/>
					<polygon class="st6" points="230.9,114.6 231.2,117.1 232.2,117 231.9,114.5 					"/>
					<path class="st7" d="M230.9,114.2"/>
					<line class="st7" x1="231.9" y1="114.1" x2="231.9" y2="114.1"/>
					<polygon class="st8" points="236.2,112.8 236.2,115.1 237.2,115.2 237.2,112.9 					"/>
					<polygon class="st7" points="236.3,111.1 236.2,112.9 237.2,112.9 237.3,111.1 					"/>
					<polygon class="st8" points="236.2,112.8 237.2,112.9 237.2,112.9 					"/>
					<polygon class="st8" points="238.7,113.6 238.6,115.7 239.6,115.7 239.7,113.6 238.7,113.6 					"/>
					<polygon class="st8" points="238.7,113.6 238.7,113.6 239.7,113.6 239.7,112.4 238.7,112.3 					"/>
					<polygon class="st7" points="238.8,108 238.7,112.3 239.7,112.4 239.8,108 					"/>
					<polygon class="st5" points="241.1,110.8 241,115.4 242,115.5 242.1,110.8 					"/>
					<polygon class="st6" points="241.3,106.4 241.1,110.8 242.1,110.8 242.3,106.4 					"/>
					<polygon class="st7" points="243.5,112 243.4,114.1 244.4,114 244.5,111.8 					"/>
					<polygon class="st7" points="243.5,110.6 243.5,112 244.5,112.1 244.5,110.6 					"/>
					<polyline class="st9" points="244.7,106.1 243.7,106.1 243.5,110.6 244.5,110.6 					"/>
					<line class="st9" x1="244.5" y1="111.9" x2="244.5" y2="111.9"/>
					<polygon class="st8" points="245.9,109.5 245.9,112.1 246.8,112.2 246.9,109.5 					"/>
					<polygon class="st7" points="246,107.2 245.9,109.7 246.9,109.8 247,107.2 					"/>
				</g>
			</g>
		</g>
	</g>
</g>
<g id="Layer_6">
	<g>
		<path class="st10" d="M308.1,239.4c-3.3,3.8-13.8-0.2-17.7,2.7c-4,3-2.9,14.2-7.3,16.3c-4.5,2.2-12.6-5.5-17.3-4.3
			c-4.8,1.3-8.1,11.9-13,12.2c-4.9,0.3-9.5-9.9-14.4-10.6c-4.9-0.7-12,8-16.7,6.3c-4.6-1.6-4.9-12.8-9.2-15.3
			c-4.2-2.5-14.1,2.8-17.9-0.6c-3.8-3.3,0.2-13.8-2.7-17.7c-3-4-14.2-2.9-16.3-7.3c-2.2-4.5,5.5-12.6,4.3-17.3
			c-1.3-4.8-11.9-8.1-12.2-13c-0.3-4.9,9.9-9.5,10.6-14.4c0.7-4.9-8-12-6.3-16.7c1.6-4.6,12.8-4.9,15.3-9.2
			c2.5-4.2-2.8-14.1,0.6-17.9c3.3-3.8,13.8,0.2,17.7-2.7c4-3,2.9-14.2,7.3-16.3c4.5-2.2,12.6,5.5,17.3,4.3c4.8-1.3,8.1-11.9,13-12.2
			c4.9-0.3,9.5,9.9,14.4,10.6c4.9,0.7,12-8,16.7-6.3c4.6,1.6,4.9,12.8,9.2,15.3c4.2,2.5,14.1-2.8,17.9,0.6
			c3.8,3.3-0.2,13.8,2.7,17.7c3,4,14.2,2.9,16.3,7.3c2.2,4.5-5.5,12.6-4.3,17.3c1.3,4.8,11.9,8.1,12.2,13c0.3,4.9-9.9,9.5-10.6,14.4
			c-0.7,4.9,8,12,6.3,16.7c-1.6,4.6-12.8,4.9-15.3,9.2C306.2,225.7,311.5,235.6,308.1,239.4z"/>
	</g>
	<g>
		<path class="st10" d="M328,193.3c-0.5,5-11.2,8-12.6,12.7c-1.4,4.8,6,13.1,3.8,17.5c-2.3,4.4-13.4,3-16.5,6.8
			c-3.1,3.8,0.6,14.4-3.2,17.6c-3.8,3.2-13.5-2.3-17.9,0c-4.3,2.4-4.9,13.5-9.7,15c-4.7,1.5-11.5-7.3-16.5-6.8
			c-4.8,0.5-9.7,10.6-14.7,10.1c-5-0.5-8-11.2-12.7-12.6c-4.8-1.4-13.1,6-17.5,3.8c-4.4-2.3-3-13.4-6.8-16.5
			c-3.8-3.1-14.4,0.6-17.6-3.2c-3.2-3.8,2.3-13.5,0-17.9c-2.4-4.3-13.5-4.9-15-9.7c-1.5-4.7,7.3-11.5,6.8-16.5
			c-0.5-4.8-10.6-9.7-10.1-14.7c0.5-5,11.2-8,12.6-12.7c1.4-4.8-6-13.1-3.8-17.5c2.3-4.4,13.4-3,16.5-6.8c3.1-3.8-0.6-14.4,3.2-17.6
			c3.8-3.2,13.5,2.3,17.9,0c4.3-2.4,4.9-13.5,9.7-15c4.7-1.5,11.5,7.3,16.5,6.8c4.8-0.5,9.7-10.6,14.7-10.1c5,0.5,8,11.2,12.7,12.6
			c4.8,1.4,13.1-6,17.5-3.8c4.4,2.3,3,13.4,6.8,16.5c3.8,3.1,14.4-0.6,17.6,3.2c3.2,3.8-2.3,13.5,0,17.9c2.4,4.3,13.5,4.9,15,9.7
			c1.5,4.7-7.3,11.5-6.8,16.5C318.4,183.4,328.5,188.3,328,193.3z"/>
	</g>
</g>
</svg>
